<?xml version="1.0" standalone="no"?>
<!DOCTYPE svg PUBLIC "-//W3C//DTD SVG 20010904//EN"
 "http://www.w3.org/TR/2001/REC-SVG-20010904/DTD/svg10.dtd">
<svg version="1.0" xmlns="http://www.w3.org/2000/svg"
 width="700.000000pt" height="700.000000pt" viewBox="0 0 700.000000 700.000000"
 preserveAspectRatio="xMidYMid meet">
<metadata>
Created by potrace 1.11, written by Peter Selinger 2001-2013
</metadata>
<g transform="translate(0.000000,700.000000) scale(0.100000,-0.100000)"
fill="#000000" stroke="none">
<path d="M0 6895 c0 -71 4 -105 11 -105 10 0 760 196 784 205 6 2 -171 4 -392
4 l-403 1 0 -105z"/>
<path d="M1295 6646 l-1290 -352 -3 -939 c-1 -516 0 -937 2 -934 2 2 104 337
226 744 123 407 226 743 229 747 3 4 826 237 1828 517 l1822 511 1443 -1035
1443 -1035 3 291 c1 161 1 293 0 294 -2 1 -495 349 -1096 773 l-1093 772
-1112 -1 -1112 -1 -1290 -352z"/>
<path d="M5616 6991 c5 -5 317 -223 694 -485 l685 -476 3 262 c1 145 1 267 -2
273 -2 6 -143 106 -314 223 l-310 212 -383 0 c-223 0 -379 -4 -373 -9z"/>
<path d="M2478 5977 c-839 -243 -1529 -444 -1532 -447 -2 -3 -206 -720 -451
-1594 -430 -1531 -446 -1590 -428 -1607 10 -10 610 -538 1333 -1173 l1315
-1156 237 0 237 0 1577 615 c868 339 1580 618 1583 621 6 6 251 3241 248 3276
-2 23 -176 153 -1292 967 -709 517 -1292 940 -1295 940 -3 -1 -692 -200 -1532
-442z m1757 -1628 c281 -215 518 -399 528 -408 18 -17 15 -41 -69 -667 -48
-357 -89 -650 -90 -652 -2 -3 -1305 -467 -1331 -474 -6 -2 -259 201 -561 450
l-549 454 13 61 c56 267 266 1222 268 1225 5 4 1259 401 1271 401 6 1 240
-175 520 -390z"/>
<path d="M3185 4288 c-258 -82 -473 -153 -477 -157 -6 -5 -193 -889 -200 -947
-2 -16 81 -89 407 -356 l410 -336 50 19 c27 10 250 88 494 173 245 86 448 159
452 163 9 10 148 965 142 975 -7 13 -792 618 -800 617 -5 0 -219 -68 -478
-151z"/>
<path d="M0 993 l0 -479 280 -257 279 -257 537 2 537 3 -774 695 c-426 382
-793 712 -816 734 l-43 39 0 -480z"/>
<path d="M6982 1055 c-7 -143 -15 -272 -18 -286 -5 -25 -60 -49 -921 -395
l-916 -369 928 -3 c511 -1 933 2 937 6 4 4 7 300 6 658 l-3 649 -13 -260z"/>
</g>
</svg>
